<?xml version="1.0" encoding="UTF-8"?>
<svg width="526px" height="99px" viewBox="0 0 526 99" version="1.1" xmlns="http://www.w3.org/2000/svg" xmlns:xlink="http://www.w3.org/1999/xlink">
    <title>logo</title>
    <g id="Page-1" stroke="none" stroke-width="1" fill="none" fill-rule="evenodd">
        <g id="logo" fill="#FFFFFF">
            <g id="noun_King_1565275" fill-rule="nonzero">
                <circle id="Oval" cx="48" cy="52" r="4"></circle>
                <circle id="Oval" cx="28" cy="56" r="4"></circle>
                <circle id="Oval" cx="68" cy="56" r="4"></circle>
                <path d="M88.45,69.65 L95.95,24.65 C96.2050017,23.1222648 95.5551029,21.5846257 94.2817105,20.7028817 C93.0083181,19.8211377 91.3403353,19.7537899 90,20.53 L65.86,34.33 L51.65,2.38 C51.0052588,0.941818915 49.5760889,0.0163068172 48,0.0163068172 C46.4239111,0.0163068172 44.9947412,0.941818915 44.35,2.38 L30.14,34.38 L6,20.53 C4.65908279,19.7638896 2.99692951,19.8381301 1.72965261,20.7207361 C0.462375709,21.6033421 -0.183613196,23.1366273 0.07,24.66 L7.57,69.66 C1.94074978,72.6751863 -0.934768568,79.117547 0.579658551,85.3212812 C2.09408567,91.5250153 7.6146226,95.9177695 14,96 L82,96 C88.3964076,95.9349403 93.9352337,91.5426975 95.4561367,85.3293959 C96.9770398,79.1160943 94.093168,72.6621284 88.45,69.65 Z M30,43.47 C30.9800607,44.0282332 32.1502513,44.146756 33.222341,43.796375 C34.2944308,43.445994 35.1687702,42.6592766 35.63,41.63 L48,13.85 L60.35,41.63 C60.8106653,42.6649344 61.6885596,43.4560041 62.7657083,43.8067924 C63.8428571,44.1575806 65.0182333,44.0351867 66,43.47 L86.67,31.65 L80.61,68 L15.39,68 L9.33,31.65 L30,43.47 Z M82,88 L14,88 C10.6862915,88 8,85.3137085 8,82 C8,78.6862915 10.6862915,76 14,76 L82,76 C85.3137085,76 88,78.6862915 88,82 C88,85.3137085 85.3137085,88 82,88 Z" id="Shape"></path>
            </g>
            <path d="M156.339338,29.2358339 C161.727094,29.2358339 165.554258,26.8206334 165.554258,26.8206334 C165.702885,26.7091626 165.851513,26.4119071 165.851513,26.2261224 L165.814356,16.2309078 C165.814356,15.8593385 165.517101,15.5249261 165.145531,15.5249261 L157.676988,15.5249261 C157.268262,15.5249261 156.971006,15.8221816 156.971006,16.2309078 L156.971006,19.9094441 C156.971006,20.2810134 157.268262,20.5782688 157.676988,20.5782688 L160.017875,20.5782688 L160.017875,22.7333709 C158.903167,23.179254 157.788459,23.3278818 156.710908,23.3278818 C152.660802,23.3278818 149.353835,19.9837579 149.353835,15.9336524 C149.353835,11.8463899 152.623645,8.42795215 156.673751,8.42795215 C158.494441,8.42795215 160.129346,8.91099226 161.541309,10.2114849 C161.838564,10.4344265 162.247291,10.4344265 162.544546,10.1743279 L165.479944,7.05314567 C165.777199,6.75589022 165.740042,6.31000704 165.40563,6.04990852 C162.878958,3.85764954 159.460521,2.55715693 156.339338,2.55715693 C148.945109,2.55715693 143,8.50226601 143,15.9336524 C143,23.3650387 148.945109,29.2358339 156.339338,29.2358339 Z M175.056298,28.9014215 C175.427868,28.9014215 175.76228,28.5670091 175.76228,28.1954398 L175.76228,18.7204222 L178.326108,18.7204222 L183.26798,28.5670091 C183.342294,28.7156369 183.565236,28.9014215 183.862491,28.9014215 L188.804363,28.9014215 C189.436031,28.9014215 189.696129,28.3069106 189.436031,27.8238705 L184.345531,18.3860099 C187.578184,17.0855172 189.844757,14.3359043 189.844757,10.9174666 C189.844757,6.4957917 186.203378,2.89156932 181.744546,2.89156932 L170.634624,2.89156932 C170.225897,2.89156932 169.928642,3.2259817 169.928642,3.59755102 L169.928642,28.1954398 C169.928642,28.5670091 170.225897,28.9014215 170.634624,28.9014215 L175.056298,28.9014215 Z M181.261506,14.0014919 L175.76228,14.0014919 L175.76228,8.20501056 L181.261506,8.20501056 C182.78494,8.20501056 184.085433,9.46834624 184.085433,11.0289374 C184.085433,12.5895285 182.78494,14.0014919 181.261506,14.0014919 Z M209.899367,28.9014215 C210.308093,28.9014215 210.605348,28.5670091 210.605348,28.1954398 L210.605348,24.1453343 C210.605348,23.773765 210.308093,23.4393526 209.899367,23.4393526 L199.606897,23.4393526 L199.606897,18.4231668 L208.078677,18.4231668 C208.450246,18.4231668 208.784659,18.1259113 208.784659,17.7171851 L208.784659,13.6670795 C208.784659,13.2955102 208.450246,12.9610978 208.078677,12.9610978 L199.606897,12.9610978 L199.606897,8.35363828 L209.899367,8.35363828 C210.308093,8.35363828 210.605348,8.0192259 210.605348,7.64765658 L210.605348,3.59755102 C210.605348,3.2259817 210.308093,2.89156932 209.899367,2.89156932 L194.516397,2.89156932 C194.107671,2.89156932 193.810415,3.2259817 193.810415,3.59755102 L193.810415,28.1954398 C193.810415,28.5670091 194.107671,28.9014215 194.516397,28.9014215 L209.899367,28.9014215 Z M215.945813,28.9014215 C216.688951,28.9014215 217.097678,28.4555384 217.283462,28.0096552 L218.621112,25.0371006 L228.727797,25.0371006 L230.065447,27.9724982 C230.399859,28.6784799 230.697115,28.9014215 231.365939,28.9014215 L235.490359,28.9014215 C236.047713,28.9014215 236.344968,28.4183814 236.122027,27.9353413 L224.491907,2.92872625 C224.380436,2.70578466 224.120338,2.52 223.860239,2.52 L223.48867,2.52 C223.228571,2.52 222.968473,2.70578466 222.857002,2.92872625 L211.226882,27.9353413 C211.003941,28.4183814 211.301196,28.9014215 211.85855,28.9014215 L215.945813,28.9014215 Z M226.498381,19.9837579 L220.850528,19.9837579 L223.637298,13.8528642 L223.674455,13.8528642 L226.498381,19.9837579 Z M245.326812,28.9014215 C245.698381,28.9014215 246.032794,28.5670091 246.032794,28.1954398 L246.032794,8.35363828 L251.346235,8.35363828 C251.754961,8.35363828 252.052217,8.0192259 252.052217,7.64765658 L252.052217,3.59755102 C252.052217,3.2259817 251.754961,2.89156932 251.346235,2.89156932 L234.848557,2.89156932 C234.439831,2.89156932 234.142576,3.2259817 234.142576,3.59755102 L234.142576,7.64765658 C234.142576,8.0192259 234.439831,8.35363828 234.848557,8.35363828 L240.161999,8.35363828 L240.161999,28.1954398 C240.161999,28.5670091 240.496411,28.9014215 240.86798,28.9014215 L245.326812,28.9014215 Z M154.592963,63.5249261 C161.764251,63.5249261 167.635046,57.6912878 167.635046,50.4828431 C167.635046,43.3487122 161.764251,37.5150739 154.592963,37.5150739 L145.526671,37.5150739 C145.155102,37.5150739 144.857847,37.8494863 144.857847,38.2210556 L144.857847,62.8189444 C144.857847,63.1905137 145.155102,63.5249261 145.526671,63.5249261 L154.592963,63.5249261 Z M154.221393,58.0257002 L150.654328,58.0257002 L150.654328,42.9771429 L154.221393,42.9771429 C158.420127,42.9771429 161.466995,46.2841098 161.466995,50.4828431 C161.466995,54.7187333 158.420127,58.0257002 154.221393,58.0257002 Z M187.243772,63.5249261 C187.652498,63.5249261 187.949754,63.1905137 187.949754,62.8189444 L187.949754,58.7688388 C187.949754,58.3972695 187.652498,58.0628571 187.243772,58.0628571 L176.951302,58.0628571 L176.951302,53.0466714 L185.423082,53.0466714 C185.794652,53.0466714 186.129064,52.7494159 186.129064,52.3406897 L186.129064,48.2905841 C186.129064,47.9190148 185.794652,47.5846024 185.423082,47.5846024 L176.951302,47.5846024 L176.951302,42.9771429 L187.243772,42.9771429 C187.652498,42.9771429 187.949754,42.6427305 187.949754,42.2711612 L187.949754,38.2210556 C187.949754,37.8494863 187.652498,37.5150739 187.243772,37.5150739 L171.860802,37.5150739 C171.452076,37.5150739 171.154821,37.8494863 171.154821,38.2210556 L171.154821,62.8189444 C171.154821,63.1905137 171.452076,63.5249261 171.860802,63.5249261 L187.243772,63.5249261 Z M197.005911,63.5249261 C197.377481,63.5249261 197.711893,63.1905137 197.711893,62.8189444 L197.711893,53.78981 L206.183673,53.78981 C206.555243,53.78981 206.889655,53.4553976 206.889655,53.0838283 L206.889655,49.0337227 C206.889655,48.6621534 206.555243,48.327741 206.183673,48.327741 L197.711893,48.327741 L197.711893,42.9771429 L208.004363,42.9771429 C208.413089,42.9771429 208.710345,42.6427305 208.710345,42.2711612 L208.710345,38.2210556 C208.710345,37.8494863 208.413089,37.5150739 208.004363,37.5150739 L192.621393,37.5150739 C192.212667,37.5150739 191.915412,37.8494863 191.915412,38.2210556 L191.915412,62.8189444 C191.915412,63.1905137 192.212667,63.5249261 192.621393,63.5249261 L197.005911,63.5249261 Z M212.23012,63.5249261 C212.973258,63.5249261 213.381985,63.0790429 213.567769,62.6331597 L214.905419,59.6606052 L225.012104,59.6606052 L226.349754,62.5960028 C226.684166,63.3019845 226.981422,63.5249261 227.650246,63.5249261 L231.774666,63.5249261 C232.33202,63.5249261 232.629275,63.041886 232.406334,62.5588459 L220.776214,37.5522308 C220.664743,37.3292892 220.404645,37.1435046 220.144546,37.1435046 L219.772977,37.1435046 C219.512878,37.1435046 219.25278,37.3292892 219.141309,37.5522308 L207.511189,62.5588459 C207.288248,63.041886 207.585503,63.5249261 208.142857,63.5249261 L212.23012,63.5249261 Z M222.782688,54.6072625 L217.134835,54.6072625 L219.921605,48.4763688 L219.958761,48.4763688 L222.782688,54.6072625 Z M244.174947,63.8964954 C250.045742,63.8964954 254.80183,59.214722 254.80183,53.5668684 L254.80183,38.2210556 C254.80183,37.8494863 254.467417,37.5150739 254.095848,37.5150739 L249.525545,37.5150739 C249.116819,37.5150739 248.819564,37.8494863 248.819564,38.2210556 L248.819564,53.2696129 C248.819564,55.8705982 246.850246,57.9513863 244.174947,57.9513863 C241.536805,57.9513863 239.604645,55.8705982 239.604645,53.2696129 L239.604645,38.2210556 C239.604645,37.8494863 239.307389,37.5150739 238.898663,37.5150739 L234.32836,37.5150739 C233.956791,37.5150739 233.622379,37.8494863 233.622379,38.2210556 L233.622379,53.5668684 C233.622379,59.214722 238.341309,63.8964954 244.174947,63.8964954 Z M274.447713,63.5249261 C274.856439,63.5249261 275.153695,63.1905137 275.153695,62.8189444 L275.153695,58.7688388 C275.153695,58.3972695 274.856439,58.0628571 274.447713,58.0628571 L265.604363,58.0628571 L265.604363,38.2210556 C265.604363,37.8494863 265.269951,37.5150739 264.898381,37.5150739 L260.476707,37.5150739 C260.06798,37.5150739 259.770725,37.8494863 259.770725,38.2210556 L259.770725,62.8189444 C259.770725,63.1905137 260.06798,63.5249261 260.476707,63.5249261 L274.447713,63.5249261 Z M284.84152,63.5249261 C285.213089,63.5249261 285.547502,63.1905137 285.547502,62.8189444 L285.547502,42.9771429 L290.860943,42.9771429 C291.269669,42.9771429 291.566925,42.6427305 291.566925,42.2711612 L291.566925,38.2210556 C291.566925,37.8494863 291.269669,37.5150739 290.860943,37.5150739 L274.363265,37.5150739 C273.954539,37.5150739 273.657284,37.8494863 273.657284,38.2210556 L273.657284,42.2711612 C273.657284,42.6427305 273.954539,42.9771429 274.363265,42.9771429 L279.676707,42.9771429 L279.676707,62.8189444 C279.676707,63.1905137 280.011119,63.5249261 280.382688,63.5249261 L284.84152,63.5249261 Z M309.084729,66.4603237 C309.530612,66.4603237 309.790711,66.1630683 309.827868,65.754342 L309.976495,62.6331597 C309.976495,62.3730612 309.753554,62.0386488 309.493455,61.927178 C306.372273,60.9239409 305.220408,57.4683462 305.220408,51.8204926 C305.220408,46.2097959 306.372273,42.7170443 309.493455,41.7509641 C309.753554,41.6766502 309.976495,41.3050809 309.976495,41.0449824 L309.827868,37.8866432 C309.827868,37.5150739 309.493455,37.1806615 309.084729,37.2178184 C304.848839,37.44076 299.646868,39.7816467 299.646868,51.8204926 C299.646868,63.8593385 304.848839,66.1630683 309.084729,66.4603237 Z M324.383251,63.8964954 C327.690218,63.8964954 330.885714,62.7446305 333.412386,60.292273 C333.672484,60.0321745 333.709641,59.5491344 333.449543,59.2890359 L330.551302,56.2050106 C330.32836,55.944912 329.84532,55.944912 329.585222,56.1678536 C328.247572,57.3197185 326.352569,57.9513863 324.606193,57.9513863 C320.40746,57.9513863 317.286277,54.5329486 317.286277,50.4085292 C317.286277,46.2469529 320.370303,42.7542013 324.569036,42.7542013 C326.389726,42.7542013 328.210415,43.423026 329.585222,44.6492048 C329.84532,44.9093033 330.254046,44.9093033 330.514145,44.6492048 L333.412386,41.6394933 C333.709641,41.3422379 333.709641,40.8963547 333.375229,40.5990992 C330.848557,38.2953695 328.098944,37.1435046 324.383251,37.1435046 C316.951865,37.1435046 310.969599,43.1257706 310.969599,50.5571569 C310.969599,57.9885433 316.951865,63.8964954 324.383251,63.8964954 Z M338.232653,63.5249261 C338.975792,63.5249261 339.384518,63.0790429 339.570303,62.6331597 L340.907952,59.6606052 L351.014638,59.6606052 L352.352287,62.5960028 C352.6867,63.3019845 352.983955,63.5249261 353.65278,63.5249261 L357.777199,63.5249261 C358.334553,63.5249261 358.631809,63.041886 358.408867,62.5588459 L346.778747,37.5522308 C346.667277,37.3292892 346.407178,37.1435046 346.14708,37.1435046 L345.77551,37.1435046 C345.515412,37.1435046 345.255313,37.3292892 345.143842,37.5522308 L333.513723,62.5588459 C333.290781,63.041886 333.588037,63.5249261 334.145391,63.5249261 L338.232653,63.5249261 Z M348.785222,54.6072625 L343.137368,54.6072625 L345.924138,48.4763688 L345.961295,48.4763688 L348.785222,54.6072625 Z M367.502182,63.8964954 C372.964251,63.8964954 376.271217,60.0321745 376.271217,56.2050106 C376.271217,51.1516678 371.663758,48.885095 368.765517,47.7332301 C365.83012,46.5442083 364.715412,45.5038142 364.715412,44.1290077 C364.715412,43.1257706 365.718649,42.2340042 367.056298,42.2340042 C369.322871,42.2340042 372.035327,44.2776355 372.36974,44.4634201 C372.704152,44.7235186 373.372977,44.3891063 373.633075,43.98038 L375.528079,41.1192963 C375.676707,40.8591977 375.75102,40.190373 375.305137,39.9302745 C374.190429,39.112822 371.217875,37.1435046 367.353554,37.1435046 C361.631386,37.1435046 358.770303,40.8591977 358.770303,44.537734 C358.770303,48.9965658 362.783251,51.4860802 365.978747,52.7494159 C368.505419,53.7526531 369.805911,54.9416749 369.805911,56.502266 C369.805911,57.8027586 368.72836,58.7316819 367.242083,58.7316819 C364.789726,58.7316819 362.114426,56.7623645 361.965799,56.6880507 C361.7057,56.502266 360.999719,56.4279521 360.702463,56.9109923 L358.956087,59.9950176 C358.658832,60.5152146 358.770303,60.6638424 359.141872,61.0354117 C359.996481,61.8900211 362.67178,63.8964954 367.502182,63.8964954 Z M391.309641,63.8964954 C394.616608,63.8964954 397.812104,62.7446305 400.338776,60.292273 C400.598874,60.0321745 400.636031,59.5491344 400.375932,59.2890359 L397.477692,56.2050106 C397.25475,55.944912 396.77171,55.944912 396.511612,56.1678536 C395.173962,57.3197185 393.278958,57.9513863 391.532583,57.9513863 C387.333849,57.9513863 384.212667,54.5329486 384.212667,50.4085292 C384.212667,46.2469529 387.296692,42.7542013 391.495426,42.7542013 C393.316115,42.7542013 395.136805,43.423026 396.511612,44.6492048 C396.77171,44.9093033 397.180436,44.9093033 397.440535,44.6492048 L400.338776,41.6394933 C400.636031,41.3422379 400.636031,40.8963547 400.301619,40.5990992 C397.774947,38.2953695 395.025334,37.1435046 391.309641,37.1435046 C383.878255,37.1435046 377.895989,43.1257706 377.895989,50.5571569 C377.895989,57.9885433 383.878255,63.8964954 391.309641,63.8964954 Z M405.159043,63.5249261 C405.902182,63.5249261 406.310908,63.0790429 406.496692,62.6331597 L407.834342,59.6606052 L417.941027,59.6606052 L419.278677,62.5960028 C419.613089,63.3019845 419.910345,63.5249261 420.57917,63.5249261 L424.703589,63.5249261 C425.260943,63.5249261 425.558198,63.041886 425.335257,62.5588459 L413.705137,37.5522308 C413.593666,37.3292892 413.333568,37.1435046 413.073469,37.1435046 L412.7019,37.1435046 C412.441802,37.1435046 412.181703,37.3292892 412.070232,37.5522308 L400.440113,62.5588459 C400.217171,63.041886 400.514426,63.5249261 401.07178,63.5249261 L405.159043,63.5249261 Z M415.711612,54.6072625 L410.063758,54.6072625 L412.850528,48.4763688 L412.887685,48.4763688 L415.711612,54.6072625 Z M437.103871,63.5249261 C444.275158,63.5249261 450.145954,57.6912878 450.145954,50.4828431 C450.145954,43.3487122 444.275158,37.5150739 437.103871,37.5150739 L428.037579,37.5150739 C427.66601,37.5150739 427.368754,37.8494863 427.368754,38.2210556 L427.368754,62.8189444 C427.368754,63.1905137 427.66601,63.5249261 428.037579,63.5249261 L437.103871,63.5249261 Z M436.732301,58.0257002 L433.165236,58.0257002 L433.165236,42.9771429 L436.732301,42.9771429 C440.931034,42.9771429 443.977903,46.2841098 443.977903,50.4828431 C443.977903,54.7187333 440.931034,58.0257002 436.732301,58.0257002 Z M458.830542,63.5249261 C459.202111,63.5249261 459.536524,63.1905137 459.536524,62.8189444 L459.536524,38.2210556 C459.536524,37.8494863 459.202111,37.5150739 458.830542,37.5150739 L454.37171,37.5150739 C454.000141,37.5150739 453.665728,37.8494863 453.665728,38.2210556 L453.665728,62.8189444 C453.665728,63.1905137 454.000141,63.5249261 454.37171,63.5249261 L458.830542,63.5249261 Z M486.539479,63.8964954 C486.911049,63.8964954 487.245461,63.59924 487.245461,63.2276707 L487.245461,38.2210556 C487.245461,37.8494863 486.911049,37.5150739 486.539479,37.5150739 L482.080647,37.5150739 C481.671921,37.5150739 481.374666,37.8494863 481.374666,38.2210556 L481.374666,51.4117664 L481.337509,51.4117664 L481.337509,51.4117664 L466.511893,37.1435046 L465.58297,37.1435046 C465.2114,37.1435046 464.876988,37.44076 464.876988,37.8123293 L464.914145,62.8189444 C464.914145,63.1905137 465.248557,63.5249261 465.620127,63.5249261 L470.041802,63.5249261 C470.450528,63.5249261 470.747783,63.1905137 470.747783,62.8189444 L470.747783,48.9594089 L470.78494,48.9594089 L470.78494,48.9594089 L485.461928,63.7107108 C485.536242,63.7850246 485.833498,63.8964954 485.944968,63.8964954 L486.539479,63.8964954 Z M504.104574,63.8593385 C509.492329,63.8593385 513.319493,61.4441379 513.319493,61.4441379 C513.468121,61.3326671 513.616749,61.0354117 513.616749,60.849627 L513.579592,50.8544124 C513.579592,50.4828431 513.282336,50.1484307 512.910767,50.1484307 L505.442224,50.1484307 C505.033498,50.1484307 504.736242,50.4456861 504.736242,50.8544124 L504.736242,54.5329486 C504.736242,54.9045179 505.033498,55.2017734 505.442224,55.2017734 L507.78311,55.2017734 L507.78311,57.3568754 C506.668403,57.8027586 505.553695,57.9513863 504.476144,57.9513863 C500.426038,57.9513863 497.119071,54.6072625 497.119071,50.5571569 C497.119071,46.4698944 500.388881,43.0514567 504.438987,43.0514567 C506.259676,43.0514567 507.894581,43.5344968 509.306545,44.8349894 C509.6038,45.057931 510.012526,45.057931 510.309782,44.7978325 L513.245179,41.6766502 C513.542435,41.3793948 513.505278,40.9335116 513.170866,40.6734131 C510.644194,38.4811541 507.225757,37.1806615 504.104574,37.1806615 C496.710345,37.1806615 490.765236,43.1257706 490.765236,50.5571569 C490.765236,57.9885433 496.710345,63.8593385 504.104574,63.8593385 Z M516.467699,66.4603237 C520.703589,66.1630683 525.905559,63.8593385 525.905559,51.8204926 C525.905559,39.7816467 520.703589,37.44076 516.467699,37.2178184 C516.058973,37.1806615 515.72456,37.5150739 515.72456,37.8866432 L515.575932,41.0449824 C515.575932,41.3050809 515.798874,41.6766502 516.058973,41.7509641 C519.180155,42.7170443 520.33202,46.2097959 520.33202,51.8204926 C520.33202,57.4683462 519.180155,60.9239409 516.058973,61.927178 C515.836031,62.0014919 515.575932,62.3359043 515.575932,62.5960028 L515.72456,65.7914989 C515.72456,66.1630683 516.058973,66.4603237 516.467699,66.4603237 Z M151.917664,98.52 C157.379733,98.52 160.6867,94.6556791 160.6867,90.8285151 C160.6867,85.7751724 156.07924,83.5085996 153.180999,82.3567347 C150.245602,81.1677129 149.130894,80.1273188 149.130894,78.7525123 C149.130894,77.7492752 150.134131,76.8575088 151.47178,76.8575088 C153.738353,76.8575088 156.450809,78.90114 156.785222,79.0869247 C157.119634,79.3470232 157.788459,79.0126108 158.048557,78.6038846 L159.943561,75.7428008 C160.092189,75.4827023 160.166502,74.8138776 159.720619,74.553779 C158.605911,73.7363265 155.633357,71.7670091 151.769036,71.7670091 C146.046868,71.7670091 143.185785,75.4827023 143.185785,79.1612386 C143.185785,83.6200704 147.198733,86.1095848 150.394229,87.3729205 C152.920901,88.3761576 154.221393,89.5651795 154.221393,91.1257706 C154.221393,92.4262632 153.143842,93.3551865 151.657565,93.3551865 C149.205208,93.3551865 146.529909,91.3858691 146.381281,91.3115552 C146.121182,91.1257706 145.415201,91.0514567 145.117945,91.5344968 L143.371569,94.6185222 C143.074314,95.1387192 143.185785,95.2873469 143.557354,95.6589163 C144.411963,96.5135257 147.087262,98.52 151.917664,98.52 Z M172.715412,98.1484307 C173.086981,98.1484307 173.421393,97.8140183 173.421393,97.442449 L173.421393,77.6006474 L178.734835,77.6006474 C179.143561,77.6006474 179.440816,77.266235 179.440816,76.8946657 L179.440816,72.8445602 C179.440816,72.4729909 179.143561,72.1385785 178.734835,72.1385785 L162.237157,72.1385785 C161.828431,72.1385785 161.531175,72.4729909 161.531175,72.8445602 L161.531175,76.8946657 C161.531175,77.266235 161.828431,77.6006474 162.237157,77.6006474 L167.550598,77.6006474 L167.550598,97.442449 C167.550598,97.8140183 167.885011,98.1484307 168.25658,98.1484307 L172.715412,98.1484307 Z M193.327375,98.1484307 C193.698944,98.1484307 194.033357,97.8140183 194.033357,97.442449 L194.033357,85.5893878 L202.35651,73.2161295 C202.653765,72.7330894 202.35651,72.1385785 201.761999,72.1385785 L196.931597,72.1385785 C196.597185,72.1385785 196.448557,72.3243631 196.337087,72.4729909 L191.172273,80.0901619 L186.00746,72.4729909 C185.895989,72.3243631 185.710204,72.1385785 185.412949,72.1385785 L180.582548,72.1385785 C179.988037,72.1385785 179.690781,72.7330894 179.988037,73.2161295 L188.199719,85.6265447 L188.199719,97.442449 C188.199719,97.8140183 188.496974,98.1484307 188.9057,98.1484307 L193.327375,98.1484307 Z M218.992681,98.1484307 C219.401407,98.1484307 219.698663,97.8140183 219.698663,97.442449 L219.698663,93.3923434 C219.698663,93.0207741 219.401407,92.6863617 218.992681,92.6863617 L210.149331,92.6863617 L210.149331,72.8445602 C210.149331,72.4729909 209.814919,72.1385785 209.44335,72.1385785 L205.021675,72.1385785 C204.612949,72.1385785 204.315693,72.4729909 204.315693,72.8445602 L204.315693,97.442449 C204.315693,97.8140183 204.612949,98.1484307 205.021675,98.1484307 L218.992681,98.1484307 Z M238.378466,98.1484307 C238.787192,98.1484307 239.084448,97.8140183 239.084448,97.442449 L239.084448,93.3923434 C239.084448,93.0207741 238.787192,92.6863617 238.378466,92.6863617 L228.085996,92.6863617 L228.085996,87.6701759 L236.557776,87.6701759 C236.929346,87.6701759 237.263758,87.3729205 237.263758,86.9641942 L237.263758,82.9140887 C237.263758,82.5425194 236.929346,82.208107 236.557776,82.208107 L228.085996,82.208107 L228.085996,77.6006474 L238.378466,77.6006474 C238.787192,77.6006474 239.084448,77.266235 239.084448,76.8946657 L239.084448,72.8445602 C239.084448,72.4729909 238.787192,72.1385785 238.378466,72.1385785 L222.995496,72.1385785 C222.58677,72.1385785 222.289514,72.4729909 222.289514,72.8445602 L222.289514,97.442449 C222.289514,97.8140183 222.58677,98.1484307 222.995496,98.1484307 L238.378466,98.1484307 Z M250.109923,98.52 C255.571992,98.52 258.878958,94.6556791 258.878958,90.8285151 C258.878958,85.7751724 254.271499,83.5085996 251.373258,82.3567347 C248.437861,81.1677129 247.323153,80.1273188 247.323153,78.7525123 C247.323153,77.7492752 248.32639,76.8575088 249.664039,76.8575088 C251.930612,76.8575088 254.643068,78.90114 254.977481,79.0869247 C255.311893,79.3470232 255.980718,79.0126108 256.240816,78.6038846 L258.13582,75.7428008 C258.284448,75.4827023 258.358761,74.8138776 257.912878,74.553779 C256.79817,73.7363265 253.825616,71.7670091 249.961295,71.7670091 C244.239127,71.7670091 241.378044,75.4827023 241.378044,79.1612386 C241.378044,83.6200704 245.390992,86.1095848 248.586488,87.3729205 C251.11316,88.3761576 252.413652,89.5651795 252.413652,91.1257706 C252.413652,92.4262632 251.336101,93.3551865 249.849824,93.3551865 C247.397467,93.3551865 244.722167,91.3858691 244.57354,91.3115552 C244.313441,91.1257706 243.60746,91.0514567 243.310204,91.5344968 L241.563828,94.6185222 C241.266573,95.1387192 241.378044,95.2873469 241.749613,95.6589163 C242.604222,96.5135257 245.279521,98.52 250.109923,98.52 Z M267.52639,98.1484307 C267.935116,98.1484307 268.232372,97.8140183 268.232372,97.442449 L268.232372,87.6701759 L278.859254,87.6701759 L278.859254,97.442449 C278.859254,97.8140183 279.15651,98.1484307 279.565236,98.1484307 L283.986911,98.1484307 C284.35848,98.1484307 284.692892,97.8140183 284.692892,97.442449 L284.692892,72.8445602 C284.692892,72.4729909 284.35848,72.1385785 283.986911,72.1385785 L279.565236,72.1385785 C279.15651,72.1385785 278.859254,72.4729909 278.859254,72.8445602 L278.859254,82.208107 L268.232372,82.208107 L268.232372,72.8445602 C268.232372,72.4729909 267.935116,72.1385785 267.52639,72.1385785 L263.104715,72.1385785 C262.733146,72.1385785 262.398733,72.4729909 262.398733,72.8445602 L262.398733,97.442449 C262.398733,97.8140183 262.733146,98.1484307 263.104715,98.1484307 L267.52639,98.1484307 Z M306.159465,98.1484307 C306.568191,98.1484307 306.865447,97.8140183 306.865447,97.442449 L306.865447,93.3923434 C306.865447,93.0207741 306.568191,92.6863617 306.159465,92.6863617 L295.866995,92.6863617 L295.866995,87.6701759 L304.338776,87.6701759 C304.710345,87.6701759 305.044757,87.3729205 305.044757,86.9641942 L305.044757,82.9140887 C305.044757,82.5425194 304.710345,82.208107 304.338776,82.208107 L295.866995,82.208107 L295.866995,77.6006474 L306.159465,77.6006474 C306.568191,77.6006474 306.865447,77.266235 306.865447,76.8946657 L306.865447,72.8445602 C306.865447,72.4729909 306.568191,72.1385785 306.159465,72.1385785 L290.776495,72.1385785 C290.367769,72.1385785 290.070514,72.4729909 290.070514,72.8445602 L290.070514,97.442449 C290.070514,97.8140183 290.367769,98.1484307 290.776495,98.1484307 L306.159465,98.1484307 Z M326.920056,98.1484307 C327.328783,98.1484307 327.626038,97.8140183 327.626038,97.442449 L327.626038,93.3923434 C327.626038,93.0207741 327.328783,92.6863617 326.920056,92.6863617 L316.627586,92.6863617 L316.627586,87.6701759 L325.099367,87.6701759 C325.470936,87.6701759 325.805348,87.3729205 325.805348,86.9641942 L325.805348,82.9140887 C325.805348,82.5425194 325.470936,82.208107 325.099367,82.208107 L316.627586,82.208107 L316.627586,77.6006474 L326.920056,77.6006474 C327.328783,77.6006474 327.626038,77.266235 327.626038,76.8946657 L327.626038,72.8445602 C327.626038,72.4729909 327.328783,72.1385785 326.920056,72.1385785 L311.537087,72.1385785 C311.12836,72.1385785 310.831105,72.4729909 310.831105,72.8445602 L310.831105,97.442449 C310.831105,97.8140183 311.12836,98.1484307 311.537087,98.1484307 L326.920056,98.1484307 Z M340.100633,98.1484307 C340.472203,98.1484307 340.806615,97.8140183 340.806615,97.442449 L340.806615,77.6006474 L346.120056,77.6006474 C346.528783,77.6006474 346.826038,77.266235 346.826038,76.8946657 L346.826038,72.8445602 C346.826038,72.4729909 346.528783,72.1385785 346.120056,72.1385785 L329.622379,72.1385785 C329.213652,72.1385785 328.916397,72.4729909 328.916397,72.8445602 L328.916397,76.8946657 C328.916397,77.266235 329.213652,77.6006474 329.622379,77.6006474 L334.93582,77.6006474 L334.93582,97.442449 C334.93582,97.8140183 335.270232,98.1484307 335.641802,98.1484307 L340.100633,98.1484307 Z" id="GREATDEFAULT(CASCADING)STYLESHEET" fill-rule="nonzero"></path>
            <rect id="Rectangle" x="114.5" y="2.52" width="10" height="96"></rect>
        </g>
    </g>
</svg>