<?xml version="1.0" encoding="UTF-8"?>
<svg width="534px" height="96px" viewBox="0 0 534 96" version="1.1" xmlns="http://www.w3.org/2000/svg" xmlns:xlink="http://www.w3.org/1999/xlink">
    <!-- Generator: Sketch 64 (93537) - https://sketch.com -->
    <title>Group 3</title>
    <desc>Created with Sketch.</desc>
    <g id="Page-1" stroke="none" stroke-width="1" fill="none" fill-rule="evenodd">
        <g id="Group-3" fill="#FFFFFF" fill-rule="nonzero">
            <g id="noun_King_1565275">
                <circle id="Oval" cx="48" cy="52" r="4"></circle>
                <circle id="Oval" cx="28" cy="56" r="4"></circle>
                <circle id="Oval" cx="68" cy="56" r="4"></circle>
                <path d="M88.45,69.65 L95.95,24.65 C96.2050017,23.1222648 95.5551029,21.5846257 94.2817105,20.7028817 C93.0083181,19.8211377 91.3403353,19.7537899 90,20.53 L65.86,34.33 L51.65,2.38 C51.0052588,0.941818915 49.5760889,0.0163068172 48,0.0163068172 C46.4239111,0.0163068172 44.9947412,0.941818915 44.35,2.38 L30.14,34.38 L6,20.53 C4.65908279,19.7638896 2.99692951,19.8381301 1.72965261,20.7207361 C0.462375709,21.6033421 -0.183613196,23.1366273 0.07,24.66 L7.57,69.66 C1.94074978,72.6751863 -0.934768568,79.117547 0.579658551,85.3212812 C2.09408567,91.5250153 7.6146226,95.9177695 14,96 L82,96 C88.3964076,95.9349403 93.9352337,91.5426975 95.4561367,85.3293959 C96.9770398,79.1160943 94.093168,72.6621284 88.45,69.65 Z M30,43.47 C30.9800607,44.0282332 32.1502513,44.146756 33.222341,43.796375 C34.2944308,43.445994 35.1687702,42.6592766 35.63,41.63 L48,13.85 L60.35,41.63 C60.8106653,42.6649344 61.6885596,43.4560041 62.7657083,43.8067924 C63.8428571,44.1575806 65.0182333,44.0351867 66,43.47 L86.67,31.65 L80.61,68 L15.39,68 L9.33,31.65 L30,43.47 Z M82,88 L14,88 C10.6862915,88 8,85.3137085 8,82 C8,78.6862915 10.6862915,76 14,76 L82,76 C85.3137085,76 88,78.6862915 88,82 C88,85.3137085 85.3137085,88 82,88 Z" id="Shape"></path>
            </g>
            <path d="M162.971394,87.992 C163.426394,87.992 164.245394,87.537 164.518394,86.991 L179.806394,57.507 L179.988394,57.507 L184.083394,85.626 C184.174394,86.354 184.993394,87.082 185.812394,87.082 L196.550394,87.082 C197.642394,87.082 198.461394,86.263 198.279394,85.08 L187.996394,23.928 C187.905394,23.109 187.086394,22.472 186.358394,22.472 L184.902394,22.472 C184.447394,22.472 183.628394,22.836 183.355394,23.382 L162.243394,62.694 L162.061394,62.694 L140.949394,23.382 C140.676394,22.836 139.857394,22.472 139.402394,22.472 L137.946394,22.472 C137.218394,22.472 136.399394,23.109 136.308394,23.928 L126.025394,85.08 C125.843394,86.263 126.662394,87.082 127.754394,87.082 L138.492394,87.082 C139.402394,87.082 140.130394,86.354 140.221394,85.626 L144.225394,57.507 L144.407394,57.507 L159.786394,86.991 C160.059394,87.537 160.787394,87.992 161.333394,87.992 L162.971394,87.992 Z M231.403394,87.992 C232.131394,87.992 232.677394,87.537 232.950394,86.991 L261.524394,25.748 C262.070394,24.565 261.342394,23.382 259.977394,23.382 L247.874394,23.382 C247.146394,23.382 246.509394,23.928 246.327394,24.383 L231.312394,57.598 L230.766394,57.598 L215.751394,24.383 C215.569394,23.928 214.932394,23.382 214.204394,23.382 L202.101394,23.382 C200.736394,23.382 200.008394,24.565 200.554394,25.748 L228.946394,86.991 C229.219394,87.537 229.765394,87.992 230.493394,87.992 L231.403394,87.992 Z M281.453394,87.082 C282.363394,87.082 283.182394,86.263 283.182394,85.353 L283.182394,63.968 L292.737394,63.968 C303.839394,63.968 313.030394,54.777 313.030394,43.493 C313.030394,32.482 303.839394,23.382 292.646394,23.382 L270.715394,23.382 C269.714394,23.382 268.986394,24.201 268.986394,25.111 L268.986394,85.353 C268.986394,86.263 269.714394,87.082 270.715394,87.082 L281.453394,87.082 Z M291.827394,50.682 L283.182394,50.682 L283.182394,36.759 L291.827394,36.759 C295.740394,36.759 299.016394,39.671 299.016394,43.493 C299.016394,47.588 295.740394,50.682 291.827394,50.682 Z M370.906394,87.992 C379.005394,87.992 386.831394,85.171 393.019394,79.165 C393.656394,78.528 393.747394,77.345 393.110394,76.708 L386.012394,69.155 C385.466394,68.518 384.283394,68.518 383.646394,69.064 C380.370394,71.885 375.729394,73.432 371.452394,73.432 C361.169394,73.432 353.525394,65.06 353.525394,54.959 C353.525394,44.767 361.078394,36.213 371.361394,36.213 C375.820394,36.213 380.279394,37.851 383.646394,40.854 C384.283394,41.491 385.284394,41.491 385.921394,40.854 L393.019394,33.483 C393.747394,32.755 393.747394,31.663 392.928394,30.935 C386.740394,25.293 380.006394,22.472 370.906394,22.472 C352.706394,22.472 338.055394,37.123 338.055394,55.323 C338.055394,73.523 352.706394,87.992 370.906394,87.992 Z M421.229394,87.992 C434.606394,87.992 442.705394,78.528 442.705394,69.155 C442.705394,56.779 431.421394,51.228 424.323394,48.407 C417.134394,45.495 414.404394,42.947 414.404394,39.58 C414.404394,37.123 416.861394,34.939 420.137394,34.939 C425.688394,34.939 432.331394,39.944 433.150394,40.399 C433.969394,41.036 435.607394,40.217 436.244394,39.216 L440.885394,32.209 C441.249394,31.572 441.431394,29.934 440.339394,29.297 C437.609394,27.295 430.329394,22.472 420.865394,22.472 C406.851394,22.472 399.844394,31.572 399.844394,40.581 C399.844394,51.501 409.672394,57.598 417.498394,60.692 C423.686394,63.149 426.871394,66.061 426.871394,69.883 C426.871394,73.068 424.232394,75.343 420.592394,75.343 C414.586394,75.343 408.034394,70.52 407.670394,70.338 C407.033394,69.883 405.304394,69.701 404.576394,70.884 L400.299394,78.437 C399.571394,79.711 399.844394,80.075 400.754394,80.985 C402.847394,83.078 409.399394,87.992 421.229394,87.992 Z M471.097394,87.992 C484.474394,87.992 492.573394,78.528 492.573394,69.155 C492.573394,56.779 481.289394,51.228 474.191394,48.407 C467.002394,45.495 464.272394,42.947 464.272394,39.58 C464.272394,37.123 466.729394,34.939 470.005394,34.939 C475.556394,34.939 482.199394,39.944 483.018394,40.399 C483.837394,41.036 485.475394,40.217 486.112394,39.216 L490.753394,32.209 C491.117394,31.572 491.299394,29.934 490.207394,29.297 C487.477394,27.295 480.197394,22.472 470.733394,22.472 C456.719394,22.472 449.712394,31.572 449.712394,40.581 C449.712394,51.501 459.540394,57.598 467.366394,60.692 C473.554394,63.149 476.739394,66.061 476.739394,69.883 C476.739394,73.068 474.100394,75.343 470.460394,75.343 C464.454394,75.343 457.902394,70.52 457.538394,70.338 C456.901394,69.883 455.172394,69.701 454.444394,70.884 L450.167394,78.437 C449.439394,79.711 449.712394,80.075 450.622394,80.985 C452.715394,83.078 459.267394,87.992 471.097394,87.992 Z M531.794394,96 C532.795394,96 533.523394,95.272 533.523394,94.362 L533.523394,89.721 C533.523394,88.72 532.795394,87.992 531.794394,87.992 L499.125394,87.992 C498.124394,87.992 497.396394,88.72 497.396394,89.721 L497.396394,94.362 C497.396394,95.272 498.124394,96 499.125394,96 L531.794394,96 Z" id="MVPCSS_"></path>
        </g>
    </g>
</svg>