<?xml version="1.0" encoding="UTF-8"?>
<svg width="40px" height="40px" viewBox="0 0 40 40" version="1.1" xmlns="http://www.w3.org/2000/svg" xmlns:xlink="http://www.w3.org/1999/xlink">
    <!-- Generator: Sketch 64 (93537) - https://sketch.com -->
    <title>Group 4</title>
    <desc>Created with Sketch.</desc>
    <g id="Page-1" stroke="none" stroke-width="1" fill="none" fill-rule="evenodd">
        <g id="Group-4">
            <rect id="Rectangle" fill="#000000" x="0" y="0" width="40" height="40"></rect>
            <g id="noun_Magnifying-Glass_19386" transform="translate(5.410519, 6.480987)" fill="#FFFFFF" fill-rule="nonzero">
                <path d="M28.1665723,24.9059217 L18.5703905,15.4414672 C19.7038451,13.8460126 20.3703905,11.8951945 20.3703905,9.78892173 C20.3703905,4.39301264 15.9961178,0.0190126418 10.6004814,0.0190126418 C5.20457233,0.0190126418 0.830572325,4.39301264 0.830572325,9.78892173 C0.830572325,15.1845581 5.20457233,19.5588308 10.6004814,19.5588308 C12.825936,19.5588308 14.8768451,18.8142854 16.5192087,17.561649 L26.094936,27.0059217 L28.1665723,24.9059217 Z M10.6004814,16.8100126 C6.72911778,16.8100126 3.57966323,13.6605581 3.57966323,9.78892173 C3.57966323,5.9175581 6.72911778,2.76810355 10.6004814,2.76810355 C14.4721178,2.76810355 17.6215723,5.9175581 17.6215723,9.78892173 C17.6215723,13.6608308 14.4723905,16.8100126 10.6004814,16.8100126 Z" id="Shape-Copy"></path>
            </g>
        </g>
    </g>
</svg>